@startuml

title LOC Book Data
skinparam linetype ortho
!include theme.iuml

entity isbn_id {
  isbn_id
  --
  isbn
}

entity book_marc_record {
  --
  rec_id
  fld_no
  tag
  ind1
  ind2
  sf_code
  contents
}

entity book_record_info <<derived>> {
  rec_id
  --
  marc_cn
  lccn
  status
  rec_type
  bib_level
}

entity book {
}

entity book_rec_isbn {
  rec_id
  isbn_id
}

entity book_author_name <<derived>> {
  --
  rec_id
  name
}

entity book_pub_year <<derived>> {
  rec_id
  --
  pub_year
}

entity book_title <<derived>> {
  rec_id
  --
  book_title
}

book_marc_record <. book_record_info

book_record_info <|- book

book --o{ book_rec_isbn
book_rec_isbn }o- isbn_id

book_marc_record <.. book_author_name
book_record_info -o{ book_author_name

book_marc_record <.. book_pub_year
book_record_info --o| book_pub_year

book_marc_record <.. book_title
book_record_info --o{ book_title

@enduml
